<?xml version="1.0" encoding="UTF-8"?>
<svg width="200" height="50" viewBox="0 0 200 50" fill="none" xmlns="http://www.w3.org/2000/svg">
    <!-- Graduation cap icon -->
    <path d="M40 15L20 8L0 15L20 22L40 15Z" fill="#3b82f6"/>
    <path d="M10 20V30C10 30 15 35 20 35C25 35 30 30 30 30V20" stroke="#1d4ed8" stroke-width="2"/>
    <circle cx="20" cy="35" r="2" fill="#1d4ed8"/>
    <rect x="28" y="17" width="2" height="15" fill="#1d4ed8"/>
    
    <!-- Text -->
    <path d="M55 18H65C67 18 69 19 69 22C69 25 67 26 65 26H55V18ZM55 25H64C65 25 66 24 66 22.5C66 21 65 20 64 20H57V25H55Z" fill="#1f2937"/>
    <path d="M70 18H73V20.5C73.5 19 75 18 77 18C80 18 82 20 82 23V32H79V24C79 22 78 21 76 21C74 21 73 22 73 24V32H70V18Z" fill="#1f2937"/>
    <path d="M85 25C85 21 88 18 92 18C96 18 99 21 99 25C99 29 96 32 92 32C88 32 85 29 85 25ZM96 25C96 22 94 20 92 20C90 20 88 22 88 25C88 28 90 30 92 30C94 30 96 28 96 25Z" fill="#1f2937"/>
    <path d="M102 18H105V20C105.5 18.5 107 18 108 18C109 18 110 18.5 110.5 19C111 17.5 113 18 114 18C117 18 118 20 118 23V32H115V24C115 22 114.5 21 113 21C111.5 21 111 22 111 24V32H108V24C108 22 107.5 21 106 21C104.5 21 104 22 104 24V32H101V18H102Z" fill="#1f2937"/>
    <path d="M120 18H123V32H120V18ZM120 14H123V17H120V14Z" fill="#1f2937"/>
    <path d="M126 25C126 21 129 18 133 18C137 18 139 21 139 25V26H129C129 28 131 30 133 30C135 30 136 29 137 28L139 30C138 31 136 32 133 32C129 32 126 29 126 25ZM129 24H136C136 22 135 20 133 20C131 20 129 22 129 24Z" fill="#1f2937"/>
    <path d="M140 18H143V19.5C144 18.5 145 18 147 18C150 18 153 21 153 25C153 29 150 32 147 32C145 32 144 31.5 143 30.5V37H140V18ZM150 25C150 22 148 20 146 20C144 20 142 22 142 25C142 28 144 30 146 30C148 30 150 28 150 25Z" fill="#1f2937"/>
    <path d="M155 25C155 21 158 18 162 18C166 18 169 21 169 25C169 29 166 32 162 32C158 32 155 29 155 25ZM166 25C166 22 164 20 162 20C160 20 158 22 158 25C158 28 160 30 162 30C164 30 166 28 166 25Z" fill="#1f2937"/>
    <path d="M170 18H173V20.5C173.5 19 175 18 177 18C180 18 182 20 182 23V32H179V24C179 22 178 21 176 21C174 21 173 22 173 24V32H170V18Z" fill="#1f2937"/>
    
    <!-- Accent line for the brand -->
    <rect x="52" y="35" width="130" height="3" rx="1.5" fill="#10b981"/>
</svg> 