<?xml version="1.0" encoding="UTF-8"?>
<svg width="150" height="150" viewBox="0 0 150 150" fill="none" xmlns="http://www.w3.org/2000/svg">
    <!-- Background Circle -->
    <circle cx="75" cy="75" r="75" fill="#E5E7EB"/>
    
    <!-- User Icon -->
    <path d="M75 80C89.8528 80 102 67.8528 102 53C102 38.1472 89.8528 26 75 26C60.1472 26 48 38.1472 48 53C48 67.8528 60.1472 80 75 80Z" fill="#9CA3AF"/>
    <path d="M120 124V116C120 108.837 117.314 101.968 112.314 96.9673C107.313 91.9667 100.444 89.2807 93.2812 89.2807H56.7188C49.556 89.2807 42.6873 91.9667 37.6867 96.9673C32.686 101.968 30 108.837 30 116V124" fill="#9CA3AF"/>
</svg> 